<?xml version="1.0" encoding="UTF-8"?><svg id="_レイヤー_2" xmlns="http://www.w3.org/2000/svg" viewBox="0 0 49.3 49.3"><defs><style>.cls-1{fill:none;stroke:#fff;stroke-linecap:round;stroke-linejoin:round;stroke-width:1.3px;}</style></defs><g id="_レイヤー_1-2"><path class="cls-1" d="M30.37,5.48c0,2.66-2.08,4.83-4.65,4.83s-4.65-2.16-4.65-4.83S23.16.65,25.72.65s4.65,2.16,4.65,4.83Z"/><path class="cls-1" d="M46.35,17.67c.85.02,1.61-.46,2.01-1.16.17-.31.27-.68.29-1.06.04-1.22-.9-2.23-2.11-2.25H7.45c-1.2.02-2.15,1.03-2.1,2.25,0,.38.11.75.29,1.06.4.7,1.16,1.18,2.01,1.16,0,0,8.12,0,12.39,0,.56,0,1,.47.99,1.04-.05,5.79.63,9.71-.89,14.29-.68,2.05-1.42,4.13-2.73,5.86-.92,1.22-2.06,1.84-3.35,2.58-1.38.8-2.27,1.4-3.62,2.23-.7.42-1.67,1.16-2.09,1.92-.41.75-.18,1.76.44,2.37,1.55,1.53,4.65-.56,6.17-1.34,3.9-2,7.27-4.73,9.26-8.79.54-1.11,1.9-1.58,3.03-1.13,2.08.83,3.35,1.13,4.96,1.77,1.25.5,2.23.93,2.22,2.39-.02,1.87.06,3.7.05,5.58,0,.35,0,.71.12,1.03.24.65.93,1.04,1.6,1.14,1.01.15,2.01-.12,2.42-1.08.19-.44.2-.94.22-1.43.05-2.32.14-4.54-.1-6.98-.35-3.62-4.05-4.16-6.51-5.38-.54-.27-1.79-.61-1.8-1.39,0-.83.07-10,.13-13.66,0-.58.47-1.04,1.02-1.04,3.5,0,14.78,0,14.78,0Z"/><line class="cls-1" x1=".65" y1="48.65" x2="47.6" y2="48.65"/></g></svg>